<svg xmlns="http://www.w3.org/2000/svg" stroke-linejoin="round" viewBox="0 0 100 100"><path stroke="#FE4" stroke-width="3" d="M50,4L4,50L50,96L96,50Z"/><path fill="#FE4" stroke="#333" stroke-width="3" d="M50,5L5,50L50,95L95,50Z"/><g><path fill="#CA0" stroke="#CA0" d="M37,42c-1,0,11-20,13-20c1,0,15,20,13,20h-9c0,8,9,22,12,25l-4,4l-8,-7v13h-10v-35z" transform="scale(0.8) translate(14,30)"/><path fill="#555" stroke="#333" d="M35,40c-1,0,11-20,13-20c1,0,15,20,13,20h-9c0,8,9,22,12,25l-4,4l-8,-7v13h-10v-35z" transform="scale(0.8) translate(14,30)"/></g><g stroke-width="2"><g fill="none" transform="translate(50,26) scale(0.25)"><ellipse stroke="#469" rx="6" ry="44"/><ellipse stroke="#ba5" rx="6" ry="44" transform="rotate(-66)"/><ellipse stroke="#68c" rx="6" ry="44" transform="rotate(66)"/><circle r="44" stroke="#331"/></g><g fill="#689" stroke="#FE4" transform="translate(50,26) scale(0.25)"><circle r="13" fill="#80a3cf"/><circle cy="-44" r="9"/><circle cx="-40" cy="18" r="9"/><circle cx="40" cy="18" r="9"/></g></g></svg>