<svg xmlns="http://www.w3.org/2000/svg" xmlns:svg="http://www.w3.org/2000/svg" xmlns:xlink="http://www.w3.org/1999/xlink" id="svg2" width="744.094" height="1052.362"><defs><filter id="filter1"><feGaussianBlur id="feGaussianBlur1" stdDeviation="2"/></filter><filter id="filter2"><feGaussianBlur id="feGaussianBlur2" stdDeviation="4"/></filter><filter id="filter3"><feGaussianBlur id="feGaussianBlur3" stdDeviation="8"/></filter><filter id="filter4"><feGaussianBlur id="feGaussianBlur4" stdDeviation="16"/></filter><filter id="filter5"><feGaussianBlur id="feGaussianBlur5" stdDeviation="32"/></filter><filter id="filter6"><feGaussianBlur id="feGaussianBlur6" stdDeviation="64"/></filter><filter id="filter7" width="1.8" height="1.8" x="-.4" y="-.4"><feGaussianBlur id="feGaussianBlur7" stdDeviation="2"/></filter><filter id="filter8" width="1.8" height="1.8" x="-.4" y="-.4"><feGaussianBlur id="feGaussianBlur8" stdDeviation="4"/></filter><filter id="filter9" width="1.8" height="1.8" x="-.4" y="-.4"><feGaussianBlur id="feGaussianBlur9" stdDeviation="8"/></filter><filter id="filter10" width="1.8" height="1.8" x="-.4" y="-.4"><feGaussianBlur id="feGaussianBlur10" stdDeviation="16"/></filter><filter id="filter11" width="1.8" height="1.8" x="-.4" y="-.4"><feGaussianBlur id="feGaussianBlur11" stdDeviation="32"/></filter><filter id="filter12" width="1.8" height="1.8" x="-.4" y="-.4"><feGaussianBlur id="feGaussianBlur12" stdDeviation="64"/></filter><clipPath id="clipPath1"><rect id="clipPath1rect1" width="25" height="25" x="100" y="100"/></clipPath><clipPath id="clipPath5"><rect id="clipPath5rect1" width="25" height="25" x="500" y="100"/></clipPath></defs><g id="layer1"><rect style="fill:red;filter:url(#filter1)" id="rect1" width="50" height="50" x="100" y="100" clip-path="url(#clipPath1)"/><rect style="stroke:#000;fill:none" id="rect101" width="50" height="50" x="100" y="100"/><rect style="fill:red;filter:url(#filter2)" id="rect2" width="50" height="50" x="200" y="100"/><rect style="fill:none;stroke:#000" id="rect201" width="50" height="50" x="200" y="100"/><rect style="fill:red;filter:url(#filter3)" id="rect3" width="50" height="50" x="300" y="100"/><rect id="rect4" style="fill:red;filter:url(#filter4)" width="50" height="50" x="400" y="100"/><rect id="rect5" style="fill:red;filter:url(#filter5)" width="50" height="50" x="500" y="100" clip-path="url(#clipPath5)"/><rect style="fill:none;stroke:#000" id="rect5" width="50" height="50" x="500" y="100"/><rect style="fill:red;filter:url(#filter6)" id="rect6" width="50" height="50" x="600" y="100"/><rect style="fill:red;filter:url(#filter1)" id="rect7" width="100" height="100" x="200" y="400" transform="matrix(.5,0,0,.5,0,0)"/><rect style="fill:red;filter:url(#filter2)" id="rect8" width="100" height="100" x="400" y="400" transform="matrix(.5,0,0,.5,0,0)"/><rect style="fill:red;filter:url(#filter3)" id="rect9" width="100" height="100" x="600" y="400" transform="matrix(.5,0,0,.5,0,0)"/><rect style="fill:red;filter:url(#filter4)" id="rect10" width="100" height="100" x="800" y="400" transform="matrix(.5,0,0,.5,0,0)"/><rect style="fill:red;filter:url(#filter5)" id="rect11" width="100" height="100" x="1000" y="400" transform="matrix(.5,0,0,.5,0,0)"/><rect style="fill:red;filter:url(#filter6)" id="rect12" width="100" height="100" x="1200" y="400" transform="matrix(.5,0,0,.5,0,0)"/><rect style="fill:red;filter:url(#filter7)" id="rect13" width="100" height="100" x="200" y="600" transform="matrix(.5,0,0,.5,0,0)"/><rect style="fill:red;filter:url(#filter8)" id="rect14" width="100" height="100" x="400" y="600" transform="matrix(.5,0,0,.5,0,0)"/><rect style="fill:red;filter:url(#filter9)" id="rect15" width="100" height="100" x="600" y="600" transform="matrix(.5,0,0,.5,0,0)"/><rect style="fill:red;filter:url(#filter10)" id="rect16" width="100" height="100" x="800" y="600" transform="matrix(.5,0,0,.5,0,0)"/><rect style="fill:red;filter:url(#filter11)" id="rect17" width="100" height="100" x="1000" y="600" transform="matrix(.5,0,0,.5,0,0)"/><rect style="fill:red;filter:url(#filter12)" id="rect18" width="100" height="100" x="1200" y="600" transform="matrix(.5,0,0,.5,0,0)"/><rect style="fill:red;filter:url(#filter7)" id="rect19" width="200" height="200" x="400" y="1600" transform="matrix(.25,0,0,.25,0,0)"/><rect style="fill:red;filter:url(#filter8)" id="rect20" width="200" height="200" x="800" y="1600" transform="matrix(.25,0,0,.25,0,0)"/><rect style="fill:red;filter:url(#filter9)" id="rect21" width="200" height="200" x="1200" y="1600" transform="matrix(.25,0,0,.25,0,0)"/><rect style="fill:red;filter:url(#filter10)" id="rect22" width="200" height="200" x="1600" y="1600" transform="matrix(.25,0,0,.25,0,0)"/><rect style="fill:red;filter:url(#filter11)" id="rect23" width="200" height="200" x="2000" y="1600" transform="matrix(.25,0,0,.25,0,0)"/><rect style="fill:red;filter:url(#filter12)" id="rect24" width="200" height="200" x="2400" y="1600" transform="matrix(.25,0,0,.25,0,0)"/><rect style="fill:red;filter:url(#filter7)" id="rect25" width="400" height="400" x="800" y="4000" transform="matrix(.125,0,0,.125,0,0)"/><rect style="fill:red;filter:url(#filter8)" id="rect26" width="400" height="400" x="1600" y="4000" transform="matrix(.125,0,0,.125,0,0)"/><rect style="fill:red;filter:url(#filter9)" id="rect27" width="400" height="400" x="2400" y="4000" transform="matrix(.125,0,0,.125,0,0)"/><rect style="fill:red;filter:url(#filter10)" id="rect28" width="400" height="400" x="3200" y="4000" transform="matrix(.125,0,0,.125,0,0)"/><rect style="fill:red;filter:url(#filter11)" id="rect29" width="400" height="400" x="4000" y="4000" transform="matrix(.125,0,0,.125,0,0)"/><rect style="fill:red;filter:url(#filter12)" id="rect30" width="400" height="400" x="4800" y="4000" transform="matrix(.125,0,0,.125,0,0)"/><g transform="matrix(.5,0,0,.5,0,0)"><rect style="fill:red;filter:url(#filter7)" id="rect31" width="400" height="400" x="800" y="4800" transform="matrix(.25,0,0,.25,0,0)"/><rect style="fill:red;filter:url(#filter8)" id="rect32" width="400" height="400" x="1600" y="4800" transform="matrix(.25,0,0,.25,0,0)"/><rect style="fill:red;filter:url(#filter9)" id="rect33" width="400" height="400" x="2400" y="4800" transform="matrix(.25,0,0,.25,0,0)"/><rect style="fill:red;filter:url(#filter10)" id="rect34" width="400" height="400" x="3200" y="4800" transform="matrix(.25,0,0,.25,0,0)"/><rect style="fill:red;filter:url(#filter11)" id="rect35" width="400" height="400" x="4000" y="4800" transform="matrix(.25,0,0,.25,0,0)"/><rect style="fill:red;filter:url(#filter12)" id="rect36" width="400" height="400" x="4800" y="4800" transform="matrix(.25,0,0,.25,0,0)"/></g></g></svg>