<svg xmlns="http://www.w3.org/2000/svg" xmlns:svg="http://www.w3.org/2000/svg" id="svg2" width="371.561" height="562.517" version="1.0"><defs id="defs4"><filter id="filter3317" width="1.156" height="1.741" x="-.078" y="-.371"><feGaussianBlur id="feGaussianBlur3319" stdDeviation="7.282"/></filter></defs><metadata id="metadata7"/><g id="layer1" transform="translate(-129.86776,-296.9882)"><rect style="opacity:1;fill:#f0a513;fill-opacity:1;stroke:none;stroke-width:7.08661413;stroke-linecap:round;stroke-miterlimit:4;stroke-dasharray:none;stroke-opacity:1" id="rect2417" width="0" height="782.857" x="232.857" y="165.219" rx="8" ry="8"/><path style="opacity:.41791047;fill:#888;fill-opacity:1;stroke:none;stroke-width:7.08661413;stroke-linecap:round;stroke-miterlimit:4;stroke-dasharray:none;stroke-opacity:1;filter:url(#filter3317)" id="path3215" d="M 511.42857,833.07648 A 112.14286,23.571428 0 1 1 287.14285,833.07648 A 112.14286,23.571428 0 1 1 511.42857,833.07648 z" transform="translate(-9.9999997,2.8571428)"/><g id="g3203" transform="matrix(0.5218355,-0.2965059,0.2965059,0.5218355,17.341215,331.70659)"><rect id="rect2405" width="98.571" height="90" x="165.714" y="78.076" rx="13.329" style="opacity:1;fill:#ff9bff;fill-opacity:1;stroke:none;stroke-width:7.08661413;stroke-linecap:round;stroke-miterlimit:4;stroke-dasharray:none;stroke-opacity:1" ry="13.329"/><path id="path3197" d="M 183.22157,1000.367 L 194.93805,1070.1331 C 194.93805,1070.1331 195.04427,1076.9274 197.51618,1077.7336 L 219.28702,1078.5383 C 219.28702,1078.5383 229.267,1079.2647 230.32382,1070.0117 C 229.90028,1062.1335 234.56226,1003.6944 234.56226,1003.6944 L 183.22157,1000.367 z" style="fill:#565248;fill-rule:evenodd;stroke:none;stroke-width:1px;stroke-linecap:butt;stroke-linejoin:miter;stroke-opacity:1"/><path id="path2425" d="M 165.71429,930.93361 L 187.14286,1023.7908 L 232.85714,1023.7908 L 264.28571,948.07647 L 264.28571,919.50504 L 165.71429,919.50504 L 165.71429,930.93361 z" style="fill:#d9bb7a;fill-rule:evenodd;stroke:none;stroke-width:1px;stroke-linecap:butt;stroke-linejoin:miter;stroke-opacity:1"/><rect id="rect2411" width="98.571" height="782.857" x="165.714" y="165.219" rx="13.329" style="opacity:1;fill:#f0a513;fill-opacity:1;stroke:none;stroke-width:7.08661413;stroke-linecap:round;stroke-miterlimit:4;stroke-dasharray:none;stroke-opacity:1" ry="13.329"/><rect id="rect2413" width="77.143" height="784.286" x="187.143" y="163.791" rx="13.329" style="opacity:1;fill:#fdca01;fill-opacity:1;stroke:none;stroke-width:7.08661413;stroke-linecap:round;stroke-miterlimit:4;stroke-dasharray:none;stroke-opacity:1" ry="13.329"/><rect id="rect2415" width="54.286" height="785.714" x="210" y="162.362" rx="13.329" ry="13.329" style="opacity:1;fill:#ff0;fill-opacity:1;stroke:none;stroke-width:7.08661413;stroke-linecap:round;stroke-miterlimit:4;stroke-dasharray:none;stroke-opacity:1"/><rect id="rect3199" width="61.429" height="90" x="202.857" y="78.076" rx="13.329" ry="13.329" style="opacity:1;fill:#ffb9ff;fill-opacity:1;stroke:none;stroke-width:7.08661413;stroke-linecap:round;stroke-miterlimit:4;stroke-dasharray:none;stroke-opacity:1"/><rect id="rect3201" width="28.571" height="90" x="235.714" y="78.076" rx="13.329" ry="13.329" style="opacity:1;fill:#ffc9ff;fill-opacity:1;stroke:none;stroke-width:7.08661413;stroke-linecap:round;stroke-miterlimit:4;stroke-dasharray:none;stroke-opacity:1"/><rect id="rect2419" width="31.429" height="782.857" x="232.857" y="165.219" rx="13.329" ry="13.329" style="opacity:1;fill:#fdca01;fill-opacity:1;stroke:none;stroke-width:7.08661413;stroke-linecap:round;stroke-miterlimit:4;stroke-dasharray:none;stroke-opacity:1"/><rect id="rect2409" width="98.571" height="48.571" x="165.714" y="140.934" rx="13.329" style="opacity:1;fill:#b3defd;fill-opacity:1;stroke:none;stroke-width:7.08661413;stroke-linecap:round;stroke-miterlimit:4;stroke-dasharray:none;stroke-opacity:1" ry="13.329"/></g></g></svg>