<svg xmlns="http://www.w3.org/2000/svg" viewBox="-80 -80 160 160"><g fill="none" stroke="#000"><path fill="#0FF" d="M0.00,0.00 L9.27,-28.53 L39.27,-28.53 L30.00,-0.00 Z"/><path fill="#F0F" d="M-15.00,-46.17 L-24.27,-17.63 L-0.00,-0.00 L9.27,-28.53 Z"/><path fill="#00F" d="M-15.00,-46.17 L-24.27,-17.63 L-33.54,-46.17 L-24.27,-74.70 Z"/><path fill="#FF0" d="M-15.00,46.17 L9.27,28.53 L0.00,0.00 L-24.27,17.63 Z"/><path fill="#0FF" d="M-15.00,46.17 L9.27,28.53 L0.00,57.06 L-24.27,74.70 Z"/><path fill="red" d="M39.27,28.53 L30.00,-0.00 L0.00,-0.00 L9.27,28.53 Z"/><path fill="#00F" d="M39.27,28.53 L30.00,-0.00 L54.27,17.63 L63.54,46.17 Z"/><path fill="#0F0" d="M39.27,-28.53 L9.27,-28.53 L0.00,-0.00 L30.00,-0.00 Z"/><path fill="red" d="M39.27,-28.53 L9.27,-28.53 L33.54,-46.17 L63.54,-46.17 Z"/><path fill="#0F0" d="M-48.54,0.00 L-24.27,17.63 L0.00,0.00 L-24.27,-17.63 Z"/><path fill="#F0F" d="M-48.54,0.00 L-24.27,17.63 L-54.27,17.63 L-78.54,0.00 Z"/><path d="M33.54,-46.17 L24.27,-74.70 L-0.00,-57.06 L-24.27,-74.70 L-15.00,-46.17 L9.27,-28.53 L-0.00,-57.06"/><path d="M-33.54,-46.17 L-63.54,-46.17 L-54.27,-17.63 L-78.54,0.00 L-48.54,0.00 L-24.27,-17.63 L-54.27,-17.63"/><path d="M0.00,57.06 L24.27,74.70 L33.54,46.17 L63.54,46.17 L39.27,28.53 L9.27,28.53 L33.54,46.17"/><path d="M-54.27,17.63 L-63.54,46.17 L-33.54,46.17 L-24.27,74.70 L-15.00,46.17 L-24.27,17.63 L-33.54,46.17"/><path d="M54.27,17.63 L78.54,-0.00 L54.27,-17.63 L63.54,-46.17 L39.27,-28.53 L30.00,-0.00 L54.27,-17.63"/></g></svg>