<svg xmlns="http://www.w3.org/2000/svg" xmlns:svg="http://www.w3.org/2000/svg" xmlns:xlink="http://www.w3.org/1999/xlink" id="svg2" width="406.25" height="206.25" x="0" y="0" version="1.0"><defs id="defs3"><linearGradient id="linearGradient2195"><stop id="stop2197" offset="0" style="stop-color:#323232;stop-opacity:1"/><stop id="stop2199" offset="1" style="stop-color:#969696;stop-opacity:1"/></linearGradient><radialGradient id="radialGradient3100" cx="195.339" cy="367.994" r="10.19" fx="195.339" fy="367.994" gradientTransform="matrix(0.793492, 0, 0, 1.26025, -124.125, -349.237)" gradientUnits="userSpaceOnUse" spreadMethod="reflect" xlink:href="#linearGradient2195"/></defs><path id="path2384" d="M 30.875,63.13818 C 17.07501,63.13818 5.87501,81.05816 5.875,103.13818 C 5.875,125.21818 17.07501,143.13817 30.875,143.13818 C 44.67499,143.13818 55.875,125.21817 55.875,103.13818 C 55.875,81.05818 44.67499,63.13819 30.875,63.13818 z M 20.875,93.13818 C 26.39495,93.13818 30.875,97.61819 30.875,103.13818 C 30.875,108.65818 26.39494,113.13818 20.875,113.13818 C 15.35506,113.13818 10.875,108.65817 10.875,103.13818 C 10.87501,97.6182 15.35506,93.13818 20.875,93.13818 z" style="fill:url(#radialGradient3100) #000;fill-opacity:1;fill-rule:evenodd;stroke:#000;stroke-width:1;stroke-linecap:round;stroke-linejoin:round;stroke-miterlimit:4;stroke-dashoffset:0;stroke-opacity:.196078"/><rect id="rect2052" width="375" height="200" x="25.875" y="3.125" rx="20" ry="20" style="fill:url(#radialGradient3100) #000;fill-opacity:1;fill-rule:evenodd;stroke:none;stroke-width:1.5;stroke-linecap:round;stroke-linejoin:round;stroke-miterlimit:4;stroke-dashoffset:0;stroke-opacity:1"/></svg>