<svg xmlns="http://www.w3.org/2000/svg" viewBox="0 0 100 100"><path fill="#723" stroke="#712" stroke-width="2" d="M1,12c0-7,4-11,11-11h87v87c0,5-5,11-11,11h-87z"/><path fill="#a33" d="M13,22h80v60l-40,15l-39-16z"/><path fill="#a54" d="M25,2l27,18l28,11l18,48v-77z"/><path fill="#d5a67c" d="M80,31l19,8l-9,20z"/><path fill="#c98" d="M78,2l2,29l19,8z"/><path fill="#b76" d="M53,20l25-18l2,29z"/><path fill="#b65" d="M90,58l8,20l-20,7z"/><path fill="#a72d3a" d="M98,78l-47,18l2,2h36zM25,2l28,18l-27,10l-12,27l-11-19z"/><path fill="#924" d="M14,56l-11,23l26,6z"/><path fill="#FFF" d="M93,23c-38-35-78,17-77,69h41c-17-52,7-81,35-67zM62,80l-7-1l2,5h7zM15,72l-7-1l-2,7l8,1zM58,62l-5-3v5l6,3zM22,47l-7-3l-2,6l7,3zM59,48l-4-4l-1,4l4,4zM62,31l-2,4l3,3l1-3zM34,26l-4-3l-4,4l5,4zM73,25h-4l1,4l3-1zM86,24h-4v2h4zM87,14l-4-3v3l4,2zM50,13l-3-4l-4,3l3,4zM68,10l-2-4h-5l2,4z"/></svg>