<svg xmlns="http://www.w3.org/2000/svg" xmlns:xlink="http://www.w3.org/1999/xlink" viewBox="0 0 100 100"><defs><g id="node" stroke="none"><circle r="18" fill="#149"/><path fill="#fff" d="M-14,7a16,16,0,0,1,22-21a15,15,0,0,0-14,2a3,3,0,1,1-5,5a15,15,0,0,0-3,14"/></g><path id="arc" fill="#149" d="M-14-6a44,62,0,0,0,28,0l0,12a44,62,0,0,0-28,0z"/></defs><use transform="translate(76,50) rotate(90)" xlink:href="#arc"/><use transform="translate(50,35) rotate(-30)" xlink:href="#arc"/><use transform="translate(50,65) rotate(30)" xlink:href="#arc"/><use transform="translate(24,50)" xlink:href="#node"/><use transform="translate(76,80)" xlink:href="#node"/><use transform="translate(76,20)" xlink:href="#node"/></svg>