<svg xmlns="http://www.w3.org/2000/svg" xmlns:xlink="http://www.w3.org/1999/xlink" id="svg-root" width="100%" height="100%" baseProfile="tiny" version="1.1" viewBox="0 0 480 360"><SVGTestCase xmlns="http://www.w3.org/2000/02/svg/testsuite/description/"><OperatorScript testname="shapes-polygon-01-t.svg" version="$Revision: 1.2 $"><Paragraph>The rendered picture should match the reference image, except for possible variations in the labelling text (per CSS2 rules).</Paragraph></OperatorScript></SVGTestCase><title id="test-title">shapes-polygon-01-t</title><desc id="test-desc">Test that viewer has the basic capability to handle the &apos;polygon&apos; element.</desc><g id="test-body-content"><polygon id="polygon-01" fill="none" stroke="#000" points="59 45 95 63 108 105 82 139 39 140 11 107 19 65"/><polygon id="polygon-02" fill="red" points="179 45 218 63 228 105 202 139 159 140 131 107 139 65 179 45"/><polygon id="polygon-03" fill="#00f" stroke="#000" stroke-width="6" points="350 45 375 80 410 95 375 110 350 145 325 120 290 95 325 70 350 45"/><polygon id="polygon-05" fill="none" stroke="#00F" stroke-width="8" points="59 185 98 203 108 245 82 279 39 280 11 247 19 205 59 185"/><polygon id="polygon-06" fill="#0F0" stroke="#00F" stroke-width="8" points="179 185 218 203 228 245 202 279 159 280 131 247 139 205"/><polygon id="polygon-07" fill="none" stroke="#0F0" stroke-width="8" points="270 225 300 245 320 225 340 245 280 280 390 280 420 240 280 185"/></g><text id="revision" x="10" y="340" fill="#000" stroke="none" font-size="40">$Revision: 1.2 $</text><rect id="test-frame" width="478" height="358" x="1" y="1" fill="none" stroke="#000"/></svg>