<svg xmlns="http://www.w3.org/2000/svg" xmlns:xlink="http://www.w3.org/1999/xlink" id="svg-root" width="100%" height="100%" baseProfile="tiny" version="1.1" viewBox="0 0 480 360"><SVGTestCase xmlns="http://www.w3.org/2000/02/svg/testsuite/description/"><OperatorScript testname="shapes-polyline-01-t.svg" version="$Revision: 1.2 $"><Paragraph>The rendered picture should match the reference image, except for possible variations in the labelling text (per CSS2 rules).</Paragraph></OperatorScript></SVGTestCase><title id="test-title">shapes-polyline-01-t</title><desc id="test-desc">Test that viewer has the basic capability to handle the &apos;polyline&apos; element.</desc><g id="test-body-content"><polyline id="polyline-01" fill="none" stroke="#000" points="10 50 35 150 60 50 85 150 110 50 135 150"/><polyline id="polyline-02" fill="none" stroke="#00f" stroke-width="8" points="220 50 267 84 249 140 190 140 172 84 220 50"/><polyline id="polyline-03" fill="#00f" stroke="#0F0" stroke-width="4" points="310 50 335 150 360 50 385 150 410 50 435 150"/><polyline id="polyline-04" fill="none" stroke="red" stroke-width="8" points="59 185 98 203 108 245 82 279 39 280 11 247 19 205"/><polyline id="polyline-05" fill="#0F0" stroke="#00F" stroke-width="8" points="189 185 228 203 238 245 212 279 169 280 141 247 149 205"/><polyline id="polyline-06" fill="#F0F" stroke="none" stroke-width="8" points="270 225 300 245 320 225 340 245 280 280 390 280 420 240 280 185"/></g><text id="revision" x="10" y="340" fill="#000" stroke="none" font-size="40">$Revision: 1.2 $</text><rect id="test-frame" width="478" height="358" x="1" y="1" fill="none" stroke="#000"/></svg>