<svg xmlns="http://www.w3.org/2000/svg" viewBox="0 0 83 121"><g fill="none" stroke-linecap="round"><g stroke-width="8"><path stroke="#FD4" d="M23,40l2,13l-13-2"/><path stroke="#D25" d="M36,40l-1,13l13-3"/><path stroke="#8CE" d="M23,80l7-11l7,11"/></g><g stroke-width="6"><path stroke="#FD4" d="M8,4c-8,9-5,30,17,49"/><path stroke="#D25" d="M79,25c-22-6-32,14-42,26"/><path stroke="#8CE" d="M10,118c23-8,20-30,20-44"/><path stroke="#FFF" d="M20,48l10,12v13m0-13l10-12"/></g><path stroke="#000" stroke-width="5" d="M20,48l10,12v13m0-13l10-12"/></g></svg>